<svg xmlns="http://www.w3.org/2000/svg" xml:space="preserve" width="2048" height="2048" style="shape-rendering:geometricPrecision;text-rendering:geometricPrecision;image-rendering:optimizeQuality;fill-rule:evenodd;clip-rule:evenodd"><defs><style>.fil0{fill:none}.fil3{fill:#ef6c00;fill-rule:nonzero}</style></defs><g id="Layer_x0020_1"><path class="fil0" d="M0 0h2048v2048H0z"/><path class="fil0" d="M255.999 255.999h1536v1536h-1536z"/><path d="M454.851 255.999h848.395v268.747c0 33.228 27.184 60.411 60.411 60.411h268.344V1400c0 22-17.999 40-40 40H454.852c-22 0-39.998-18-39.998-40V296c0-22 17.999-40 39.999-40z" style="fill:#ffcc80"/><path d="m1303.19 255.999 328.759 329.158h-269.982c-32.328 0-58.776-26.448-58.776-58.776V255.999z" style="fill:#ffb74d"/><path class="fil3" d="M671.999 755.343H1408v64.001H671.999zM671.999 979.338H1408v64.002H671.999z"/><path d="M337.396 1218.19h1373.21c22.375 0 42.735 9.234 57.51 24.108 14.738 14.835 23.887 35.238 23.887 57.618v394.353c0 22.381-9.15 42.782-23.887 57.618-14.777 14.874-35.136 24.109-57.51 24.109H337.396c-22.373 0-42.735-9.235-57.512-24.109-14.736-14.833-23.885-35.234-23.885-57.618v-394.353c0-22.381 9.149-42.783 23.885-57.618 14.775-14.874 35.137-24.108 57.512-24.108z" style="fill:#ef6c00"/><path d="M1150.37 1676.06h-78.666l-31.25-81.333H897.37l-29.5 81.333h-76.667l139.416-357.917h76.418l143.333 357.917zm-133.083-141.584-49.334-132.833-48.333 132.833h97.667zm170.916-152.834v-63.5h68.584v63.5h-68.584zm0 294.417v-259.25h68.584v259.25h-68.584z" style="fill:#ffcc80;fill-rule:nonzero"/></g></svg>